<svg xmlns="http://www.w3.org/2000/svg" width="256" height="256" viewBox="0 0 100 100"><rect width="100" height="100" rx="50" fill="#74cbed"></rect><path fill="#f3f3f3" d="M30.36 45.16L30.36 64.42Q30.13 64.51 29.68 64.63Q29.23 64.74 28.69 64.74L28.69 64.74Q26.76 64.74 26.76 63.12L26.76 63.12L26.76 43.81Q26.98 43.72 27.46 43.61Q27.93 43.50 28.47 43.50L28.47 43.50Q30.36 43.50 30.36 45.16L30.36 45.16ZM26.22 37.15L26.22 37.15Q26.22 36.21 26.87 35.56Q27.52 34.90 28.56 34.90L28.56 34.90Q29.59 34.90 30.22 35.56Q30.85 36.21 30.85 37.15L30.85 37.15Q30.85 38.10 30.22 38.75Q29.59 39.40 28.56 39.40L28.56 39.40Q27.52 39.40 26.87 38.75Q26.22 38.10 26.22 37.15ZM56.68 54.12L56.68 54.12Q56.68 56.64 55.96 58.66Q55.24 60.69 53.91 62.13Q52.59 63.57 50.70 64.33Q48.81 65.10 46.47 65.10L46.47 65.10Q44.13 65.10 42.24 64.33Q40.35 63.57 39.00 62.13Q37.65 60.69 36.93 58.66Q36.21 56.64 36.21 54.12L36.21 54.12Q36.21 51.60 36.95 49.57Q37.69 47.55 39.04 46.11Q40.39 44.67 42.28 43.90Q44.17 43.14 46.47 43.14L46.47 43.14Q48.76 43.14 50.65 43.90Q52.54 44.67 53.87 46.11Q55.20 47.55 55.94 49.57Q56.68 51.60 56.68 54.12ZM46.47 46.11L46.47 46.11Q43.41 46.11 41.65 48.22Q39.90 50.34 39.90 54.12L39.90 54.12Q39.90 57.94 41.63 60.04Q43.36 62.13 46.47 62.13L46.47 62.13Q49.57 62.13 51.28 60.01Q52.99 57.90 52.99 54.12L52.99 54.12Q52.99 50.34 51.26 48.22Q49.53 46.11 46.47 46.11ZM69.37 65.10L69.37 65.10Q66.22 65.10 64.27 63.70Q62.31 62.31 62.31 59.07L62.31 59.07L62.31 37.69Q62.53 37.60 63.00 37.49Q63.48 37.38 64.02 37.38L64.02 37.38Q65.91 37.38 65.91 39.00L65.91 39.00L65.91 44.17L73.29 44.17Q73.42 44.40 73.56 44.78Q73.69 45.16 73.69 45.61L73.69 45.61Q73.69 47.14 72.34 47.14L72.34 47.14L65.91 47.14L65.91 58.84Q65.91 60.64 66.92 61.39Q67.93 62.13 69.78 62.13L69.78 62.13Q70.54 62.13 71.49 61.86Q72.43 61.59 73.06 61.23L73.06 61.23Q73.33 61.50 73.56 61.90Q73.78 62.31 73.78 62.85L73.78 62.85Q73.78 63.84 72.61 64.47Q71.44 65.10 69.37 65.10Z"></path></svg>